<svg width="36" height="36" viewBox="0 0 36 36" fill="none" xmlns="http://www.w3.org/2000/svg">
  <path
    d="M25.3157 0C27.0574 6.05666e-05 28.6134 0.410925 29.9819 1.23366C31.3813 2.05645 32.4707 3.205 33.2482 4.67898C34.0259 6.11898 34.4148 7.7686 34.4148 9.62003C34.4143 11.4011 33.9775 12.9766 33.1076 14.3469C32.5553 15.2488 31.9107 16.0282 31.1836 16.6928C32.4031 17.4142 33.435 18.396 34.2741 19.646C35.4248 21.3601 36 23.3166 36 25.5107C35.9997 27.4295 35.5937 29.1958 34.7855 30.8065C34.008 32.3826 32.9046 33.6533 31.4744 34.6129C30.044 35.5382 28.3484 35.9998 26.3896 36H9.81818C4.39575 36 1.58138e-07 31.6042 0 26.1818V9.81818C0 4.39575 4.39575 0 9.81818 0H25.3157ZM8.18182 24.5455C7.27808 24.5455 6.54545 25.2781 6.54545 26.1818C6.54545 27.0856 7.27808 27.8182 8.18182 27.8182H27.8182C28.7219 27.8182 29.4545 27.0856 29.4545 26.1818C29.4545 25.2781 28.7219 24.5455 27.8182 24.5455H8.18182ZM8.18182 16.3636C7.27808 16.3636 6.54545 17.0963 6.54545 18C6.54545 18.9037 7.27808 19.6364 8.18182 19.6364H14.7273C15.631 19.6364 16.3636 18.9037 16.3636 18C16.3636 17.0963 15.631 16.3636 14.7273 16.3636H8.18182ZM8.18182 8.18182C7.27808 8.18182 6.54545 8.91444 6.54545 9.81818C6.54545 10.7219 7.27808 11.4545 8.18182 11.4545H24.5455C25.4492 11.4545 26.1818 10.7219 26.1818 9.81818C26.1818 8.91444 25.4492 8.18182 24.5455 8.18182H8.18182Z"
    fill="#155DFC" />
</svg>